<?xml version="1.0" standalone="no"?>
<!DOCTYPE svg PUBLIC "-//W3C//DTD SVG 20010904//EN"
 "http://www.w3.org/TR/2001/REC-SVG-20010904/DTD/svg10.dtd">
<svg version="1.0" xmlns="http://www.w3.org/2000/svg"
 width="990.000000pt" height="1026.000000pt" viewBox="0 0 990.000000 1026.000000"
 preserveAspectRatio="xMidYMid meet">

<g transform="translate(0.000000,1026.000000) scale(0.100000,-0.100000)"
fill="#000000" stroke="none">
<path d="M1562 4215 l3 -630 32 -68 c56 -118 85 -138 638 -457 275 -158 501
-287 503 -285 4 3 -251 455 -279 496 -11 16 -127 89 -284 179 -147 85 -275
165 -286 178 -18 23 -19 44 -19 352 l0 328 -146 259 c-81 142 -151 262 -156
268 -5 6 -8 -247 -6 -620z"/>
</g>
</svg>
